<svg width="235" height="135" viewBox="0 0 235 135" fill="none" xmlns="http://www.w3.org/2000/svg">
<circle cx="5" cy="5" r="5" fill="#C4C4C4"/>
<circle cx="55" cy="5" r="5" fill="#C4C4C4"/>
<circle cx="80" cy="5" r="5" fill="#C4C4C4"/>
<circle cx="105" cy="5" r="5" fill="#C4C4C4"/>
<circle cx="130" cy="5" r="5" fill="#C4C4C4"/>
<circle cx="155" cy="5" r="5" fill="#C4C4C4"/>
<circle cx="180" cy="5" r="5" fill="#C4C4C4"/>
<circle cx="230" cy="5" r="5" fill="#C4C4C4"/>
<circle cx="205" cy="5" r="5" fill="#C4C4C4"/>
<circle cx="30" cy="5" r="5" fill="#C4C4C4"/>
<circle cx="5" cy="30" r="5" fill="#C4C4C4"/>
<circle cx="55" cy="30" r="5" fill="#C4C4C4"/>
<circle cx="80" cy="30" r="5" fill="#C4C4C4"/>
<circle cx="105" cy="30" r="5" fill="#C4C4C4"/>
<circle cx="130" cy="30" r="5" fill="#C4C4C4"/>
<circle cx="155" cy="30" r="5" fill="#C4C4C4"/>
<circle cx="180" cy="30" r="5" fill="#C4C4C4"/>
<circle cx="230" cy="30" r="5" fill="#C4C4C4"/>
<circle cx="205" cy="30" r="5" fill="#C4C4C4"/>
<circle cx="30" cy="30" r="5" fill="#C4C4C4"/>
<circle cx="5" cy="55" r="5" fill="#C4C4C4"/>
<circle cx="55" cy="55" r="5" fill="#C4C4C4"/>
<circle cx="80" cy="55" r="5" fill="#C4C4C4"/>
<circle cx="105" cy="55" r="5" fill="#C4C4C4"/>
<circle cx="130" cy="55" r="5" fill="#C4C4C4"/>
<circle cx="155" cy="55" r="5" fill="#C4C4C4"/>
<circle cx="180" cy="55" r="5" fill="#C4C4C4"/>
<circle cx="230" cy="55" r="5" fill="#C4C4C4"/>
<circle cx="205" cy="55" r="5" fill="#C4C4C4"/>
<circle cx="30" cy="55" r="5" fill="#C4C4C4"/>
<circle cx="5" cy="80" r="5" fill="#C4C4C4"/>
<circle cx="55" cy="80" r="5" fill="#C4C4C4"/>
<circle cx="80" cy="80" r="5" fill="#C4C4C4"/>
<circle cx="105" cy="80" r="5" fill="#C4C4C4"/>
<circle cx="130" cy="80" r="5" fill="#C4C4C4"/>
<circle cx="155" cy="80" r="5" fill="#C4C4C4"/>
<circle cx="180" cy="80" r="5" fill="#C4C4C4"/>
<circle cx="230" cy="80" r="5" fill="#C4C4C4"/>
<circle cx="205" cy="80" r="5" fill="#C4C4C4"/>
<circle cx="30" cy="80" r="5" fill="#C4C4C4"/>
<circle cx="5" cy="130" r="5" fill="#C4C4C4"/>
<circle cx="55" cy="130" r="5" fill="#C4C4C4"/>
<circle cx="80" cy="130" r="5" fill="#C4C4C4"/>
<circle cx="105" cy="130" r="5" fill="#C4C4C4"/>
<circle cx="130" cy="130" r="5" fill="#C4C4C4"/>
<circle cx="155" cy="130" r="5" fill="#C4C4C4"/>
<circle cx="180" cy="130" r="5" fill="#C4C4C4"/>
<circle cx="230" cy="130" r="5" fill="#C4C4C4"/>
<circle cx="205" cy="130" r="5" fill="#C4C4C4"/>
<circle cx="30" cy="130" r="5" fill="#C4C4C4"/>
<circle cx="5" cy="105" r="5" fill="#C4C4C4"/>
<circle cx="55" cy="105" r="5" fill="#C4C4C4"/>
<circle cx="80" cy="105" r="5" fill="#C4C4C4"/>
<circle cx="105" cy="105" r="5" fill="#C4C4C4"/>
<circle cx="130" cy="105" r="5" fill="#C4C4C4"/>
<circle cx="155" cy="105" r="5" fill="#C4C4C4"/>
<circle cx="180" cy="105" r="5" fill="#C4C4C4"/>
<circle cx="230" cy="105" r="5" fill="#C4C4C4"/>
<circle cx="205" cy="105" r="5" fill="#C4C4C4"/>
<circle cx="30" cy="105" r="5" fill="#C4C4C4"/>
</svg>
